<?xml version="1.0" encoding="utf-8"?>
<!-- Generator: Adobe Illustrator 19.2.1, SVG Export Plug-In . SVG Version: 6.00 Build 0)  -->
<svg version="1.1" id="Layer_1" xmlns="http://www.w3.org/2000/svg" xmlns:xlink="http://www.w3.org/1999/xlink" x="0px" y="0px"
	 viewBox="0 0 303.8 69.9" style="enable-background:new 0 0 303.8 69.9;" xml:space="preserve">
<style type="text/css">
	.st0{fill:#6D6464;}
	.st1{fill:#720505;}
</style>
<title>cliusLogo</title>
<path class="st0" d="M40.4,17.2h4.5c0.3,0,0.7,0.1,0.9,0.4c0.5,0.5,0.5,1.2,0,1.7c0,0,0,0,0,0c-0.2,0.2-0.6,0.4-0.9,0.4h-4.7
	c-0.6,0-1.3-0.2-1.8-0.6c-0.5-0.3-1-0.7-1.3-1.3l-2.9-5.5c-0.4-0.8-0.6-1.6-0.6-2.4c0-0.8,0.2-1.7,0.5-2.4l2.9-5.5
	c0.3-0.5,0.8-1,1.3-1.4C38.9,0.2,39.5,0,40.1,0H45c0.3,0,0.7,0.1,0.9,0.4c0.2,0.2,0.4,0.5,0.4,0.9c0,0.3-0.1,0.7-0.4,0.9
	c-0.2,0.2-0.5,0.4-0.9,0.4h-4.7c-0.4,0-0.8,0.3-1,0.7l-2.7,5.1c-0.2,0.4-0.3,0.9-0.3,1.4c0,0.5,0.1,1.1,0.3,1.5l2.6,5.1
	C39.4,16.9,39.9,17.2,40.4,17.2z"/>
<path class="st1" d="M49.8,2.5h-4.5c-0.3,0-0.7-0.1-0.9-0.4c-0.2-0.2-0.4-0.5-0.4-0.9c0-0.3,0.1-0.7,0.4-0.9C44.7,0.1,45,0,45.3,0
	H50c0.6,0,1.3,0.2,1.8,0.6c0.5,0.3,1,0.7,1.3,1.3L56,7.4c0.4,0.8,0.6,1.6,0.6,2.5c0,0.8-0.2,1.7-0.6,2.4l-2.9,5.5
	c-0.3,0.5-0.8,1-1.3,1.4c-0.5,0.4-1.1,0.6-1.7,0.6h-4.9c-0.3,0-0.7-0.1-0.9-0.4c-0.2-0.2-0.4-0.5-0.4-0.9c0-0.3,0.1-0.7,0.4-0.9
	c0.2-0.2,0.5-0.4,0.9-0.4H50c0.4,0,0.8-0.3,1-0.7l2.8-5.1C54,10.8,54,10.4,54,9.9c0-0.5-0.1-1.1-0.3-1.5l-2.7-5
	C50.8,2.8,50.3,2.5,49.8,2.5z"/>
<path d="M7.2,35.8h4.7c0.4,0,0.7,0.1,0.9,0.4c0.5,0.5,0.5,1.3,0,1.8c0,0,0,0,0,0c-0.3,0.2-0.6,0.4-0.9,0.4H7c-0.7,0-1.4-0.2-2-0.6
	c-0.6-0.3-1.1-0.8-1.4-1.3l-3-5.9C0.2,29.8,0,28.9,0,28c0-0.9,0.2-1.8,0.6-2.5l3.1-5.8C4,19.1,4.4,18.6,5,18.2
	c0.5-0.4,1.2-0.6,1.8-0.6H12c0.4,0,0.7,0.1,0.9,0.4c0.2,0.2,0.4,0.6,0.4,0.9c0,0.4-0.1,0.7-0.4,1c-0.2,0.3-0.6,0.4-0.9,0.4H7
	c-0.4,0-0.8,0.3-1,0.7l-3,5.5c-0.2,0.5-0.4,1-0.3,1.5c0,0.6,0.1,1.1,0.4,1.6L5.9,35C6.1,35.5,6.6,35.8,7.2,35.8z"/>
<path d="M29.9,38.4H22c-0.4,0-0.7-0.1-1-0.4c-0.2-0.3-0.4-0.6-0.4-1c0-0.3,0.1-0.7,0.4-0.9c0.3-0.3,0.6-0.4,1-0.4h2.6V20.2h-2.7
	c-0.7,0.1-1.4-0.5-1.4-1.2c-0.1-0.7,0.5-1.4,1.2-1.4c0.1,0,0.2,0,0.2,0h4c0.7,0,1.3,0.6,1.3,1.3v16.8h2.7c0.7,0,1.3,0.6,1.3,1.3
	c0,0.4-0.1,0.7-0.4,1C30.6,38.3,30.3,38.4,29.9,38.4z"/>
<path d="M49.3,38.4h-8c-0.7-0.1-1.3-0.7-1.2-1.4c0.1-0.6,0.6-1.1,1.2-1.2H44v-9.8h-2.7c-0.4,0-0.7-0.1-0.9-0.4
	C40.1,25.3,40,25,40,24.6c0-0.4,0.1-0.7,0.4-1c0.2-0.3,0.6-0.4,0.9-0.4h4c0.4,0,0.7,0.1,0.9,0.4c0.2,0.3,0.4,0.6,0.4,1v11.1h2.6
	c0.4,0,0.7,0.1,1,0.4c0.5,0.5,0.5,1.3,0,1.8c0,0,0,0,0,0C50,38.2,49.6,38.4,49.3,38.4z"/>
<path d="M64.3,35.8l4.4-2.8v-8.3c0-0.4,0.1-0.7,0.4-1c0.5-0.5,1.3-0.5,1.8,0c0,0,0,0,0,0c0.2,0.3,0.4,0.6,0.4,1v12.5
	c-0.1,0.7-0.7,1.3-1.4,1.2c-0.6-0.1-1.1-0.6-1.2-1.2v-1l-2.3,1.5c-0.8,0.5-1.7,0.8-2.7,0.9h-1.2c-1,0-2-0.4-2.8-1.1
	c-0.8-0.7-1.2-1.7-1.2-2.8l-0.4-9.9c0-0.3,0.1-0.7,0.4-0.9c0.2-0.3,0.6-0.4,1-0.4c0.3,0,0.7,0.1,0.9,0.4c0.2,0.2,0.4,0.6,0.4,0.9
	l0.4,9.7c0,0.8,0.6,1.4,1.3,1.4c0.1,0,0.2,0,0.3,0L64.3,35.8L64.3,35.8z"/>
<path d="M81.1,23.3h6c0.9,0,1.8,0.3,2.5,0.8c0.6,0.4,1,1,1.1,1.6c0,0.4-0.1,0.7-0.4,0.9c-0.2,0.2-0.6,0.4-0.9,0.4
	c-0.4,0-0.9-0.2-1.1-0.6c-0.3-0.3-0.7-0.5-1.1-0.6h-6c-0.4-0.1-0.8,0.2-0.9,0.5c0,0.1,0,0.1,0,0.2c0,0.4,0.2,0.7,0.6,0.8l7,3.1
	c0.7,0.3,1.3,0.8,1.8,1.5c0.5,0.7,0.7,1.5,0.7,2.3c0,1.1-0.4,2.1-1.2,2.9c-0.7,0.7-1.7,1.2-2.7,1.2h-5.3c-0.9,0-1.8-0.3-2.6-0.8
	c-0.6-0.3-1.1-0.9-1.2-1.6c0-0.3,0.1-0.7,0.4-0.9c0.3-0.3,0.6-0.4,1-0.4c0.4,0,0.8,0.2,1.1,0.6c0.5,0.4,1,0.6,1.7,0.6h4.9
	c0.4,0,0.8-0.2,1-0.5c0.2-0.3,0.4-0.6,0.4-1c0-0.6-0.3-1.2-0.9-1.4l-7.1-3.2c-0.6-0.3-1.2-0.7-1.6-1.3c-0.3-0.5-0.5-1.1-0.6-1.8
	c0-0.9,0.4-1.8,1-2.4C79.3,23.6,80.2,23.3,81.1,23.3z"/>
<path d="M123.4,35.8h4.8c0.4,0,0.7,0.1,0.9,0.4c0.5,0.5,0.5,1.3,0,1.8c0,0,0,0,0,0c-0.3,0.2-0.6,0.4-0.9,0.4h-4.9
	c-0.7,0-1.4-0.2-1.9-0.6c-0.6-0.3-1.1-0.8-1.4-1.3l-3-5.9c-0.4-0.8-0.6-1.7-0.6-2.6c0-0.9,0.2-1.8,0.6-2.5l3.1-5.8
	c0.3-0.6,0.8-1.1,1.4-1.4c0.5-0.4,1.1-0.6,1.7-0.6h5.2c0.4,0,0.7,0.1,0.9,0.4c0.2,0.2,0.4,0.6,0.4,0.9c0,0.4-0.1,0.7-0.4,1
	c-0.2,0.3-0.6,0.4-0.9,0.4h-5c-0.4,0-0.8,0.3-1,0.7l-2.9,5.5c-0.2,0.5-0.4,1-0.3,1.5c0,0.6,0.1,1.1,0.4,1.6l2.8,5.4
	C122.3,35.5,122.8,35.8,123.4,35.8z"/>
<path d="M148.8,28v5.6c-0.1,1.3-0.7,2.5-1.7,3.3c-0.9,0.9-2.1,1.5-3.4,1.5h-3.1c-1.3,0-2.5-0.6-3.4-1.5c-1-0.8-1.6-2-1.6-3.3V28
	c0.1-1.3,0.6-2.4,1.6-3.3c0.9-0.9,2.2-1.5,3.5-1.5h3.1c1.3,0,2.5,0.6,3.4,1.5C148.1,25.5,148.8,26.7,148.8,28z M138.2,28.1v5.3
	c0,0.4,0.2,0.9,0.5,1.1l1,0.8c0.3,0.2,0.6,0.3,0.9,0.3h3.1c0.5,0,0.9-0.2,1.2-0.5l0.8-0.7c0.3-0.2,0.5-0.6,0.5-1v-5.3
	c0-0.4-0.1-0.9-0.5-1.2l-0.9-0.7c-0.3-0.3-0.7-0.4-1.1-0.4h-2.7c-0.5,0-1,0.1-1.4,0.4l-0.9,0.8C138.3,27.3,138.2,27.7,138.2,28.1
	L138.2,28.1z"/>
<path d="M161.1,26.4l-3.6,2.3v8.4c-0.1,0.7-0.7,1.3-1.4,1.2c-0.6-0.1-1.1-0.6-1.2-1.2V24.6c0-0.4,0.1-0.7,0.4-1
	c0.5-0.5,1.3-0.5,1.8-0.1c0,0,0,0,0.1,0.1c0.3,0.3,0.4,0.6,0.4,1v0.9l2.4-1.5c0.8-0.5,1.8-0.8,2.7-0.8h1.2c1,0,2,0.4,2.7,1.1
	c0.8,0.7,1.2,1.7,1.2,2.7l0.4,10c0,0.3-0.1,0.7-0.4,0.9c-0.2,0.3-0.6,0.4-0.9,0.4c-0.3,0-0.7-0.1-0.9-0.3c-0.3-0.3-0.4-0.6-0.4-1
	l-0.4-9.8c0.1-0.7-0.4-1.3-1.1-1.4c-0.1,0-0.2,0-0.3,0h-1.3C161.9,25.9,161.5,26.1,161.1,26.4z"/>
<path d="M178,23.3h6c0.9,0,1.8,0.3,2.5,0.8c0.6,0.4,1,1,1.1,1.6c0,0.4-0.1,0.7-0.4,0.9c-0.2,0.2-0.6,0.4-0.9,0.4
	c-0.4,0-0.9-0.2-1.1-0.6c-0.3-0.3-0.7-0.5-1.1-0.6h-6c-0.4-0.1-0.8,0.2-0.9,0.5c0,0.1,0,0.1,0,0.2c0,0.4,0.2,0.7,0.6,0.8l7,3.1
	c0.7,0.3,1.3,0.8,1.8,1.5c0.5,0.7,0.7,1.5,0.7,2.3c0,1.1-0.4,2.1-1.2,2.9c-0.7,0.7-1.7,1.2-2.7,1.2H178c-0.9,0-1.8-0.3-2.6-0.8
	c-0.6-0.3-1.1-0.9-1.2-1.6c0-0.3,0.1-0.7,0.4-0.9c0.3-0.3,0.6-0.4,1-0.4c0.4,0,0.8,0.2,1.1,0.6c0.5,0.4,1,0.6,1.6,0.6h4.9
	c0.4,0,0.8-0.2,1-0.5c0.2-0.3,0.4-0.6,0.4-1c0-0.6-0.3-1.1-0.9-1.3l-7.1-3.2c-0.6-0.3-1.2-0.7-1.6-1.3c-0.3-0.5-0.5-1.1-0.6-1.8
	c0-0.9,0.4-1.8,1-2.4C176.2,23.7,177.1,23.3,178,23.3z"/>
<path d="M199.9,35.8l4.4-2.8v-8.3c0-0.4,0.1-0.7,0.4-1c0.5-0.5,1.3-0.5,1.8,0c0,0,0,0,0,0c0.2,0.3,0.4,0.6,0.4,1v12.5
	c-0.1,0.7-0.7,1.3-1.4,1.2c-0.6-0.1-1.1-0.6-1.2-1.2v-1l-2.3,1.5c-0.8,0.5-1.7,0.8-2.7,0.9h-1.2c-1,0-2-0.4-2.8-1.1
	c-0.8-0.7-1.2-1.7-1.2-2.8l-0.4-9.9c0-0.3,0.1-0.7,0.4-0.9c0.2-0.3,0.6-0.4,0.9-0.4c0.3,0,0.7,0.1,0.9,0.4c0.2,0.2,0.4,0.6,0.4,0.9
	l0.4,9.7c0,0.8,0.6,1.4,1.3,1.4c0.1,0,0.2,0,0.3,0L199.9,35.8L199.9,35.8z"/>
<path d="M223.6,38.4h-8c-0.4,0-0.7-0.1-0.9-0.4c-0.2-0.3-0.4-0.6-0.4-1c0-0.3,0.1-0.7,0.4-0.9c0.2-0.3,0.6-0.4,0.9-0.4h2.6V20.2
	h-2.7c-0.7,0.1-1.4-0.5-1.4-1.2c-0.1-0.7,0.5-1.4,1.2-1.4c0.1,0,0.2,0,0.2,0h4c0.7,0,1.4,0.5,1.4,1.3c0,0,0,0,0,0v16.8h2.7
	c0.7,0,1.3,0.6,1.3,1.3c0,0.4-0.1,0.7-0.4,1C224.4,38.3,224,38.4,223.6,38.4z"/>
<path d="M241.6,38.4H239c-1.1,0-2.1-0.4-2.8-1.2c-0.8-0.7-1.2-1.7-1.2-2.8v-8.5h-1.4c-0.3,0-0.7-0.1-0.9-0.4c-0.5-0.5-0.5-1.3,0-1.9
	c0.2-0.3,0.6-0.4,0.9-0.4h1.4v-3.2c0-0.7,0.6-1.3,1.3-1.3c0.4,0,0.7,0.1,0.9,0.4c0.3,0.2,0.4,0.6,0.4,0.9v3.2h5.3
	c0.7,0.1,1.3,0.7,1.2,1.4c-0.1,0.6-0.6,1.1-1.2,1.2h-5.3v8.5c0,0.3,0.1,0.7,0.4,0.9c0.3,0.3,0.6,0.4,0.9,0.4h2.6
	c0.7,0,1.3-0.5,1.4-1.1c0.1-0.7,0.7-1.1,1.3-1.1c0.4,0,0.7,0.1,0.9,0.4c0.3,0.3,0.4,0.6,0.4,1c-0.1,0.9-0.5,1.8-1.1,2.4
	C243.8,38,242.7,38.5,241.6,38.4z"/>
<path d="M262.4,38.4h-8c-0.7-0.1-1.3-0.7-1.2-1.4c0.1-0.6,0.6-1.1,1.2-1.2h2.7v-9.8h-2.7c-0.4,0-0.7-0.1-0.9-0.4
	c-0.2-0.2-0.4-0.6-0.4-0.9c0-0.4,0.1-0.7,0.4-1c0.2-0.3,0.6-0.4,0.9-0.4h4c0.4,0,0.7,0.1,0.9,0.4c0.2,0.3,0.4,0.6,0.4,1v11.1h2.6
	c0.4,0,0.7,0.1,1,0.4c0.5,0.5,0.5,1.3,0,1.8c0,0,0,0,0,0C263.1,38.2,262.7,38.4,262.4,38.4z M257,16.4h1.4c0.7,0,1.3,0.6,1.3,1.3
	c0,0,0,0,0,0v1.1c0,0.4-0.1,0.7-0.4,1c-0.2,0.3-0.6,0.4-0.9,0.4H257c-0.4,0-0.7-0.1-1-0.4c-0.2-0.2-0.4-0.6-0.4-0.9v-1.2
	C255.7,17,256.3,16.4,257,16.4C257,16.4,257,16.4,257,16.4z"/>
<path d="M277.4,26.4l-3.6,2.3v8.4c-0.1,0.7-0.7,1.3-1.4,1.2c-0.6-0.1-1.1-0.6-1.2-1.2V24.6c0-0.4,0.1-0.7,0.4-1
	c0.5-0.5,1.3-0.5,1.8-0.1c0,0,0,0,0.1,0.1c0.3,0.3,0.4,0.6,0.4,1v0.9l2.4-1.5c0.8-0.5,1.8-0.8,2.7-0.8h1.2c1,0,2,0.4,2.7,1.1
	c0.7,0.7,1.2,1.7,1.2,2.8l0.4,10c0,0.3-0.1,0.6-0.4,0.9c-0.2,0.3-0.6,0.4-0.9,0.4c-0.3,0-0.7-0.1-0.9-0.3c-0.3-0.3-0.4-0.6-0.4-1
	l-0.4-9.8c0.1-0.7-0.4-1.3-1.1-1.4c-0.1,0-0.2,0-0.3,0h-1.3C278.2,25.9,277.7,26.1,277.4,26.4z"/>
<path d="M298.8,44h-5.7c-0.3,0-0.7-0.1-0.9-0.4c-0.3-0.2-0.4-0.6-0.4-0.9c0-0.3,0.1-0.7,0.4-0.9c0.2-0.2,0.6-0.4,0.9-0.4h5.7
	c0.4,0,0.7-0.1,1-0.4l0.9-0.8c0.3-0.2,0.5-0.6,0.5-0.9v-4c-0.9,1.1-2.2,1.7-3.6,1.9h-2c-1,0-2-0.4-2.8-1.1l-1-0.9
	c-0.4-0.3-0.7-0.7-0.8-1.2c-0.2-0.5-0.3-1-0.4-1.5v-4.3c0-0.6,0.1-1.2,0.4-1.8c0.2-0.5,0.5-0.9,0.8-1.2l1.1-0.9c0.7-0.7,1.7-1,2.7-1
	h1.9c1,0,2,0.4,2.8,1.1l0.9,0.8v-0.5c0-0.7,0.6-1.3,1.3-1.3c0.4,0,0.7,0.1,1,0.4c0.3,0.2,0.4,0.6,0.4,0.9v14.7
	c0,1.1-0.5,2.2-1.4,2.9l-1.1,0.9c-0.3,0.3-0.7,0.5-1.1,0.6C299.8,43.9,299.3,44,298.8,44z M297.3,25.9h-1.8c-0.4,0-0.8,0.2-1.1,0.5
	l-0.8,0.7c-0.3,0.3-0.5,0.7-0.5,1.1v4.4c0,0.4,0.2,0.8,0.5,1l0.9,0.8c0.2,0.2,0.5,0.3,0.9,0.3h2.1c0.4,0,0.7-0.2,1-0.5l2.1-1.8
	c0.3-0.2,0.5-0.6,0.5-1v-2c0-0.5-0.2-0.9-0.5-1.2l-2.1-1.8C298.1,26,297.7,25.9,297.3,25.9L297.3,25.9z"/>
<g>
	<path d="M10.4,65.5l3.1-10.7c0.1-0.4,0.4-0.6,0.8-0.6c0.4,0,0.6,0.2,0.7,0.5l3.1,10.8c0,0.1,0,0.2,0,0.2c0,0.2-0.1,0.4-0.2,0.6
		s-0.3,0.2-0.5,0.2c-0.4,0-0.7-0.2-0.8-0.6l-0.6-2.1h-3.6l-0.7,2.3c0,0.1-0.1,0.2-0.2,0.3c-0.1,0.1-0.3,0.1-0.4,0.1
		c-0.2,0-0.4-0.1-0.6-0.2c-0.1-0.2-0.2-0.3-0.2-0.6C10.4,65.7,10.4,65.6,10.4,65.5z M14.3,57.8L13,62.3h2.6L14.3,57.8z"/>
	<path d="M28.1,58.7V55c0-0.2,0.1-0.4,0.2-0.6s0.3-0.2,0.5-0.2c0.2,0,0.4,0.1,0.6,0.2c0.2,0.2,0.2,0.3,0.2,0.6v10.8
		c0,0.2-0.1,0.4-0.2,0.6c-0.2,0.2-0.3,0.2-0.5,0.2c-0.2,0-0.4-0.1-0.6-0.2s-0.2-0.3-0.2-0.6v-0.3c-0.8,0.7-1.5,1.1-2.1,1.1h-1.3
		c-0.5,0-1.1-0.2-1.6-0.7l-0.6-0.5c-0.1-0.1-0.3-0.4-0.4-0.7c-0.1-0.3-0.2-0.6-0.2-0.9v-3.2c0-0.4,0.1-0.7,0.2-1
		c0.1-0.3,0.3-0.6,0.5-0.7l0.6-0.5c0.5-0.4,1-0.6,1.6-0.6h1.1c0.6,0,1.2,0.2,1.7,0.6L28.1,58.7z M25.8,59.2h-1.1
		c-0.2,0-0.4,0.1-0.6,0.3l-0.5,0.4c-0.2,0.2-0.3,0.4-0.3,0.6v3.3c0,0.2,0.1,0.4,0.3,0.6l0.5,0.4c0.2,0.1,0.3,0.2,0.5,0.2H26
		c0.2,0,0.4-0.1,0.6-0.3l1.2-1c0.2-0.2,0.3-0.4,0.3-0.7v-1.7c0-0.4-0.1-0.7-0.3-0.8l-1.3-1.1C26.4,59.2,26.1,59.2,25.8,59.2z"/>
	<path d="M41.2,58.4v1.5L38.5,66c-0.2,0.4-0.4,0.5-0.7,0.5h-1c-0.4,0-0.6-0.2-0.8-0.6l-2.7-6.1v-1.5c0-0.2,0.1-0.4,0.2-0.6
		c0.2-0.2,0.3-0.2,0.6-0.2c0.2,0,0.4,0.1,0.6,0.2c0.2,0.2,0.2,0.3,0.2,0.6l0,1.2l2.4,5.3l2.4-5.4l0-1.2c0-0.2,0.1-0.4,0.2-0.6
		c0.2-0.2,0.3-0.2,0.6-0.2c0.2,0,0.4,0.1,0.6,0.2C41.1,58,41.2,58.2,41.2,58.4z"/>
	<path d="M51.1,66.5h-4.8c-0.2,0-0.4-0.1-0.6-0.2c-0.2-0.2-0.2-0.3-0.2-0.6c0-0.2,0.1-0.4,0.2-0.5c0.2-0.2,0.3-0.2,0.6-0.2h1.6v-5.8
		h-1.6c-0.2,0-0.4-0.1-0.6-0.2c-0.2-0.2-0.2-0.3-0.2-0.5c0-0.2,0.1-0.4,0.2-0.6c0.2-0.2,0.3-0.2,0.6-0.2h2.4c0.2,0,0.4,0.1,0.6,0.2
		c0.2,0.2,0.2,0.3,0.2,0.6V65h1.6c0.2,0,0.4,0.1,0.6,0.2c0.2,0.2,0.2,0.3,0.2,0.6s-0.1,0.4-0.2,0.6C51.5,66.5,51.3,66.5,51.1,66.5z
		 M47.9,53.5h0.8c0.2,0,0.4,0.1,0.6,0.2c0.2,0.2,0.2,0.3,0.2,0.6V55c0,0.2-0.1,0.4-0.2,0.6c-0.2,0.2-0.3,0.2-0.6,0.2h-0.8
		c-0.2,0-0.4-0.1-0.6-0.2c-0.2-0.2-0.2-0.3-0.2-0.5l0-0.7c0-0.2,0.1-0.4,0.2-0.6C47.5,53.6,47.7,53.5,47.9,53.5z"/>
	<path d="M63.4,66.5H60c-0.6,0-1.1-0.2-1.5-0.5L57,64.7c-0.5-0.4-0.7-0.9-0.7-1.6v-2c0-0.7,0.2-1.2,0.8-1.7l1.4-1.2
		c0.4-0.4,0.9-0.5,1.4-0.5h3.5c0.2,0,0.4,0.1,0.6,0.2c0.2,0.2,0.2,0.3,0.2,0.6c0,0.2-0.1,0.4-0.2,0.6c-0.2,0.1-0.3,0.2-0.6,0.2H60
		c-0.2,0-0.4,0.1-0.6,0.3l-1.3,1.1c-0.2,0.2-0.3,0.4-0.3,0.7v1.9c0,0.2,0.1,0.4,0.2,0.5l1.4,1.2c0.2,0.2,0.4,0.2,0.7,0.2h3.2
		c0.2,0,0.4,0.1,0.5,0.2c0.2,0.2,0.2,0.3,0.2,0.6s-0.1,0.4-0.2,0.6C63.8,66.5,63.6,66.5,63.4,66.5z"/>
	<path d="M75.6,60.5v1.9c0,0.2-0.1,0.4-0.2,0.5c-0.2,0.2-0.3,0.2-0.5,0.2h-5.5v0.5c0,0.3,0.1,0.5,0.3,0.7l0.5,0.4
		c0.2,0.2,0.5,0.3,0.7,0.3h4c0.2,0,0.4,0.1,0.5,0.2c0.2,0.2,0.2,0.3,0.2,0.6c0,0.2-0.1,0.4-0.2,0.5c-0.2,0.2-0.3,0.2-0.5,0.2h-4.1
		c-0.3,0-0.6-0.1-0.9-0.2c-0.3-0.1-0.5-0.2-0.7-0.4l-0.7-0.6c-0.2-0.2-0.4-0.4-0.5-0.7c-0.1-0.3-0.2-0.6-0.2-0.9v-3.6
		c0-0.2,0.1-0.5,0.2-0.8c0.2-0.3,0.4-0.6,0.6-0.8l0.6-0.5c0.4-0.3,0.9-0.5,1.4-0.5h2.2c0.6,0,1.1,0.2,1.6,0.7l0.6,0.6
		C75.4,59.2,75.6,59.8,75.6,60.5z M69.3,60.4v1.2h4.7v-1.1c0-0.3-0.1-0.5-0.3-0.7l-0.5-0.4c-0.2-0.2-0.4-0.3-0.6-0.3h-2
		c-0.2,0-0.5,0.1-0.7,0.3l-0.5,0.4C69.4,60,69.3,60.2,69.3,60.4z"/>
	<path d="M82.3,61.6h1.6c0.2,0,0.4,0.1,0.5,0.2c0.2,0.2,0.2,0.3,0.2,0.6v1.3c0,0.2-0.1,0.4-0.2,0.6c-0.2,0.2-0.3,0.2-0.6,0.2h-1.6
		c-0.2,0-0.4-0.1-0.6-0.2c-0.2-0.2-0.2-0.3-0.2-0.5v-1.3c0-0.2,0.1-0.4,0.2-0.6C81.9,61.7,82.1,61.6,82.3,61.6z"/>
	<path d="M97.8,55.8h-5.5v3.8h2.4c0.2,0,0.4,0.1,0.5,0.2c0.2,0.2,0.2,0.3,0.2,0.5c0,0.2-0.1,0.4-0.2,0.6c-0.2,0.2-0.3,0.2-0.6,0.2
		h-2.4V65h5.5c0.2,0,0.4,0.1,0.5,0.2c0.2,0.2,0.2,0.3,0.2,0.6s-0.1,0.4-0.2,0.6c-0.2,0.2-0.3,0.2-0.6,0.2h-7.1V54.2h7.1
		c0.2,0,0.4,0.1,0.6,0.2c0.2,0.2,0.2,0.3,0.2,0.6c0,0.2-0.1,0.4-0.2,0.5C98.2,55.7,98,55.8,97.8,55.8z"/>
	<path d="M106.2,63.2l-2.6,3c-0.2,0.2-0.4,0.3-0.6,0.3c-0.2,0-0.4-0.1-0.6-0.2c-0.1-0.2-0.2-0.3-0.2-0.6c0-0.2,0-0.4,0.1-0.5
		l2.8-3.3l-2.6-3.1c-0.1-0.1-0.2-0.3-0.2-0.5c0-0.2,0.1-0.4,0.2-0.6c0.1-0.2,0.3-0.2,0.6-0.2c0.3,0,0.5,0.1,0.6,0.3l2.4,2.8l2.4-2.9
		c0.1-0.2,0.3-0.3,0.6-0.3c0.2,0,0.4,0.1,0.5,0.2c0.2,0.1,0.2,0.3,0.2,0.5c0,0.2,0,0.4-0.1,0.4l-2.6,3.2l2.8,3.3
		c0.1,0.1,0.2,0.3,0.2,0.4c0,0.2-0.1,0.4-0.2,0.6c-0.2,0.2-0.3,0.2-0.5,0.2c-0.2,0-0.5-0.1-0.6-0.3L106.2,63.2z"/>
	<path d="M121.5,60.5v1.9c0,0.2-0.1,0.4-0.2,0.5c-0.2,0.2-0.3,0.2-0.5,0.2h-5.5v0.5c0,0.3,0.1,0.5,0.3,0.7l0.5,0.4
		c0.2,0.2,0.5,0.3,0.7,0.3h4c0.2,0,0.4,0.1,0.5,0.2c0.2,0.2,0.2,0.3,0.2,0.6c0,0.2-0.1,0.4-0.2,0.5c-0.2,0.2-0.3,0.2-0.5,0.2h-4.1
		c-0.3,0-0.6-0.1-0.9-0.2c-0.3-0.1-0.5-0.2-0.7-0.4l-0.7-0.6c-0.2-0.2-0.4-0.4-0.5-0.7c-0.1-0.3-0.2-0.6-0.2-0.9v-3.6
		c0-0.2,0.1-0.5,0.2-0.8c0.2-0.3,0.4-0.6,0.6-0.8l0.6-0.5c0.4-0.3,0.9-0.5,1.4-0.5h2.2c0.6,0,1.1,0.2,1.6,0.7l0.6,0.6
		C121.3,59.2,121.5,59.8,121.5,60.5z M115.2,60.4v1.2h4.7v-1.1c0-0.3-0.1-0.5-0.3-0.7l-0.5-0.4c-0.2-0.2-0.4-0.3-0.6-0.3h-2
		c-0.2,0-0.5,0.1-0.7,0.3l-0.5,0.4C115.3,60,115.2,60.2,115.2,60.4z"/>
	<path d="M132.2,66.5h-3.3c-0.6,0-1.1-0.2-1.5-0.5l-1.5-1.3c-0.5-0.4-0.7-0.9-0.7-1.6v-2c0-0.7,0.2-1.2,0.8-1.7l1.4-1.2
		c0.4-0.4,0.9-0.5,1.4-0.5h3.5c0.2,0,0.4,0.1,0.6,0.2c0.2,0.2,0.2,0.3,0.2,0.6c0,0.2-0.1,0.4-0.2,0.6c-0.2,0.1-0.3,0.2-0.6,0.2h-3.3
		c-0.2,0-0.4,0.1-0.6,0.3l-1.3,1.1c-0.2,0.2-0.3,0.4-0.3,0.7v1.9c0,0.2,0.1,0.4,0.2,0.5l1.4,1.2c0.2,0.2,0.4,0.2,0.7,0.2h3.2
		c0.2,0,0.4,0.1,0.5,0.2c0.2,0.2,0.2,0.3,0.2,0.6s-0.1,0.4-0.2,0.6C132.6,66.5,132.4,66.5,132.2,66.5z"/>
	<path d="M140.3,65l2.6-1.7v-4.9c0-0.2,0.1-0.4,0.2-0.6c0.2-0.2,0.3-0.2,0.6-0.2c0.2,0,0.4,0.1,0.6,0.2c0.2,0.2,0.2,0.3,0.2,0.6v7.4
		c0,0.2-0.1,0.4-0.2,0.5c-0.2,0.2-0.3,0.2-0.5,0.2c-0.2,0-0.4-0.1-0.5-0.2c-0.2-0.2-0.2-0.3-0.2-0.5v-0.6l-1.4,0.9
		c-0.5,0.3-1.1,0.5-1.6,0.5h-0.7c-0.6,0-1.2-0.2-1.6-0.7c-0.5-0.4-0.7-1-0.7-1.6l-0.2-5.9c0-0.2,0.1-0.4,0.2-0.5
		c0.2-0.2,0.3-0.2,0.6-0.2c0.2,0,0.4,0.1,0.5,0.2c0.2,0.2,0.2,0.3,0.2,0.5l0.2,5.8c0,0.6,0.3,0.8,1,0.8H140.3z"/>
	<path d="M153.6,66.5H152c-0.6,0-1.2-0.2-1.7-0.7s-0.7-1-0.7-1.7v-5.1h-0.8c-0.2,0-0.4-0.1-0.6-0.2c-0.2-0.1-0.2-0.3-0.2-0.6
		c0-0.2,0.1-0.4,0.2-0.6c0.2-0.2,0.3-0.2,0.6-0.2h0.8v-1.9c0-0.2,0.1-0.4,0.2-0.6c0.2-0.2,0.3-0.2,0.6-0.2c0.2,0,0.4,0.1,0.5,0.2
		c0.2,0.2,0.2,0.3,0.2,0.5v1.9h3.1c0.2,0,0.4,0.1,0.5,0.2s0.2,0.3,0.2,0.5c0,0.2-0.1,0.4-0.2,0.6c-0.2,0.2-0.3,0.2-0.5,0.2h-3.2v5.1
		c0,0.2,0.1,0.4,0.2,0.5c0.2,0.2,0.3,0.2,0.6,0.2h1.5c0.4,0,0.7-0.2,0.8-0.7s0.4-0.7,0.8-0.7c0.2,0,0.4,0.1,0.6,0.2
		c0.1,0.2,0.2,0.3,0.2,0.6c0,0.5-0.2,0.9-0.7,1.4C154.8,66.3,154.2,66.5,153.6,66.5z"/>
	<path d="M165.8,66.5h-4.8c-0.2,0-0.4-0.1-0.6-0.2s-0.2-0.3-0.2-0.6c0-0.2,0.1-0.4,0.2-0.5c0.2-0.2,0.3-0.2,0.6-0.2h1.6v-5.8h-1.6
		c-0.2,0-0.4-0.1-0.6-0.2s-0.2-0.3-0.2-0.5c0-0.2,0.1-0.4,0.2-0.6c0.2-0.2,0.3-0.2,0.6-0.2h2.4c0.2,0,0.4,0.1,0.6,0.2
		c0.2,0.2,0.2,0.3,0.2,0.6V65h1.6c0.2,0,0.4,0.1,0.6,0.2c0.2,0.2,0.2,0.3,0.2,0.6s-0.1,0.4-0.2,0.6
		C166.2,66.5,166.1,66.5,165.8,66.5z M162.7,53.5h0.8c0.2,0,0.4,0.1,0.6,0.2c0.2,0.2,0.2,0.3,0.2,0.6V55c0,0.2-0.1,0.4-0.2,0.6
		c-0.2,0.2-0.3,0.2-0.6,0.2h-0.8c-0.2,0-0.4-0.1-0.6-0.2c-0.2-0.2-0.2-0.3-0.2-0.5l0-0.7c0-0.2,0.1-0.4,0.2-0.6
		S162.5,53.5,162.7,53.5z"/>
	<path d="M178.9,60.4v3.3c0,0.7-0.3,1.3-1,1.9c-0.7,0.6-1.3,0.9-2,0.9H174c-0.7,0-1.4-0.3-2-0.9c-0.6-0.6-1-1.2-1-1.9v-3.3
		c0-0.7,0.3-1.3,1-1.9c0.6-0.6,1.3-0.9,2.1-0.9h1.8c0.7,0,1.4,0.3,2,0.9C178.5,59,178.9,59.7,178.9,60.4z M172.6,60.5v3.2
		c0,0.3,0.1,0.5,0.3,0.7l0.6,0.5c0.1,0.1,0.3,0.2,0.5,0.2h1.8c0.3,0,0.5-0.1,0.7-0.3l0.5-0.4c0.2-0.1,0.3-0.4,0.3-0.6v-3.2
		c0-0.3-0.1-0.5-0.3-0.7l-0.5-0.4c-0.2-0.2-0.4-0.2-0.6-0.2h-1.6c-0.4,0-0.6,0.1-0.8,0.3l-0.5,0.5C172.7,60,172.6,60.2,172.6,60.5z"
		/>
	<path d="M186.2,59.4l-2.1,1.4v5c0,0.2-0.1,0.4-0.2,0.5c-0.2,0.2-0.3,0.2-0.5,0.2s-0.4-0.1-0.5-0.2c-0.2-0.2-0.2-0.3-0.2-0.5v-7.4
		c0-0.2,0.1-0.4,0.2-0.6c0.2-0.2,0.3-0.2,0.6-0.2c0.2,0,0.4,0.1,0.5,0.2c0.2,0.2,0.2,0.3,0.2,0.6v0.5l1.4-0.9c0.5-0.3,1-0.5,1.6-0.5
		h0.7c0.6,0,1.2,0.2,1.6,0.7s0.7,1,0.7,1.6l0.2,5.9c0,0.2-0.1,0.4-0.2,0.5c-0.2,0.2-0.3,0.2-0.6,0.2c-0.2,0-0.4-0.1-0.5-0.2
		c-0.2-0.1-0.2-0.3-0.2-0.6l-0.2-5.8c0-0.5-0.3-0.8-0.9-0.8H187C186.7,59.1,186.5,59.2,186.2,59.4z"/>
	<path d="M197.1,61.6h1.6c0.2,0,0.4,0.1,0.5,0.2c0.2,0.2,0.2,0.3,0.2,0.6v1.3c0,0.2-0.1,0.4-0.2,0.6c-0.2,0.2-0.3,0.2-0.6,0.2h-1.6
		c-0.2,0-0.4-0.1-0.6-0.2c-0.2-0.2-0.2-0.3-0.2-0.5v-1.3c0-0.2,0.1-0.4,0.2-0.6C196.7,61.7,196.9,61.6,197.1,61.6z"/>
	<path d="M207.2,54.2h4.1c0.5,0,1,0.2,1.4,0.6c0.4,0.4,0.7,0.9,0.7,1.5c0,0.2-0.1,0.4-0.2,0.6c-0.2,0.2-0.3,0.2-0.5,0.2
		c-0.3,0-0.4-0.1-0.5-0.2c-0.1-0.1-0.2-0.3-0.3-0.7s-0.3-0.5-0.6-0.5h-3.9c-0.2,0-0.3,0.1-0.3,0.2c0,0.1,0,0.2,0.1,0.3l5.8,7.4
		c0.3,0.4,0.4,0.7,0.4,1.1c0,0.5-0.2,0.9-0.5,1.2c-0.3,0.4-0.7,0.5-1.1,0.5h-4.2c-0.6,0-1-0.2-1.5-0.6s-0.6-0.9-0.6-1.4
		c0-0.6,0.3-0.9,0.8-0.9c0.2,0,0.4,0.1,0.5,0.2s0.2,0.3,0.2,0.5c0,0.2,0.1,0.3,0.2,0.4s0.3,0.2,0.4,0.2h3.9c0.2,0,0.3-0.1,0.3-0.2
		c0-0.1,0-0.1-0.1-0.2l-5.8-7.4c-0.3-0.4-0.4-0.7-0.4-1.1c0-0.5,0.2-0.9,0.5-1.3C206.3,54.4,206.7,54.2,207.2,54.2z"/>
	<path d="M220.6,65l2.6-1.7v-4.9c0-0.2,0.1-0.4,0.2-0.6c0.2-0.2,0.3-0.2,0.6-0.2c0.2,0,0.4,0.1,0.6,0.2c0.2,0.2,0.2,0.3,0.2,0.6v7.4
		c0,0.2-0.1,0.4-0.2,0.5c-0.2,0.2-0.3,0.2-0.5,0.2c-0.2,0-0.4-0.1-0.5-0.2c-0.2-0.2-0.2-0.3-0.2-0.5v-0.6l-1.4,0.9
		c-0.5,0.3-1.1,0.5-1.6,0.5h-0.7c-0.6,0-1.2-0.2-1.6-0.7c-0.5-0.4-0.7-1-0.7-1.6l-0.2-5.9c0-0.2,0.1-0.4,0.2-0.5
		c0.2-0.2,0.3-0.2,0.6-0.2c0.2,0,0.4,0.1,0.5,0.2c0.2,0.2,0.2,0.3,0.2,0.5l0.2,5.8c0,0.6,0.3,0.8,1,0.8H220.6z"/>
	<path d="M230,65.7v3.5c0,0.2-0.1,0.4-0.2,0.6c-0.2,0.2-0.3,0.2-0.6,0.2s-0.4-0.1-0.6-0.2c-0.2-0.2-0.2-0.3-0.2-0.6V58
		c0-0.2,0.1-0.4,0.2-0.5c0.2-0.2,0.3-0.2,0.6-0.2c0.2,0,0.4,0.1,0.5,0.2c0.2,0.2,0.2,0.3,0.2,0.5v0.5c0.8-0.8,1.5-1.3,2.2-1.3h0.4
		c0.6,0,1.1,0.2,1.5,0.6l1.3,1.1c0.6,0.5,0.9,1.1,0.9,1.9v2.4c0,0.8-0.3,1.4-0.9,1.9l-1.3,1.1c-0.4,0.4-1,0.6-1.6,0.6h-0.3
		c-0.6,0-1.1-0.2-1.5-0.6L230,65.7z M232.2,65.3h0.4c0.2,0,0.4-0.1,0.6-0.3l1.2-1.1c0.2-0.2,0.3-0.4,0.3-0.7v-2.5
		c0-0.2-0.1-0.5-0.3-0.7l-1.3-1.1c-0.1-0.1-0.3-0.2-0.5-0.2h-0.5c-0.2,0-0.4,0.1-0.7,0.4l-1.2,1.2c-0.2,0.2-0.3,0.4-0.3,0.7v2
		c0,0.2,0.1,0.5,0.3,0.7l1.1,1.1C231.7,65.2,232,65.3,232.2,65.3z"/>
	<path d="M241.5,65.7v3.5c0,0.2-0.1,0.4-0.2,0.6s-0.3,0.2-0.6,0.2c-0.2,0-0.4-0.1-0.6-0.2c-0.2-0.2-0.2-0.3-0.2-0.6V58
		c0-0.2,0.1-0.4,0.2-0.5c0.2-0.2,0.3-0.2,0.6-0.2c0.2,0,0.4,0.1,0.5,0.2c0.2,0.2,0.2,0.3,0.2,0.5v0.5c0.8-0.8,1.5-1.3,2.2-1.3h0.4
		c0.5,0,1.1,0.2,1.5,0.6l1.3,1.1c0.6,0.5,0.9,1.1,0.9,1.9v2.4c0,0.8-0.3,1.4-0.9,1.9l-1.3,1.1c-0.4,0.4-1,0.6-1.6,0.6h-0.3
		c-0.6,0-1.1-0.2-1.5-0.6L241.5,65.7z M243.7,65.3h0.4c0.2,0,0.4-0.1,0.6-0.3l1.2-1.1c0.2-0.2,0.3-0.4,0.3-0.7v-2.5
		c0-0.2-0.1-0.5-0.3-0.7l-1.3-1.1c-0.1-0.1-0.3-0.2-0.5-0.2h-0.5c-0.2,0-0.4,0.1-0.7,0.4l-1.2,1.2c-0.2,0.2-0.3,0.4-0.3,0.7v2
		c0,0.2,0.1,0.5,0.3,0.7l1.1,1.1C243.2,65.2,243.5,65.3,243.7,65.3z"/>
	<path d="M259.2,60.4v3.3c0,0.7-0.3,1.3-1,1.9c-0.7,0.6-1.3,0.9-2,0.9h-1.8c-0.7,0-1.4-0.3-2-0.9c-0.6-0.6-1-1.2-1-1.9v-3.3
		c0-0.7,0.3-1.3,1-1.9c0.6-0.6,1.3-0.9,2.1-0.9h1.8c0.7,0,1.4,0.3,2,0.9C258.9,59,259.2,59.7,259.2,60.4z M252.9,60.5v3.2
		c0,0.3,0.1,0.5,0.3,0.7l0.6,0.5c0.1,0.1,0.3,0.2,0.5,0.2h1.8c0.3,0,0.5-0.1,0.7-0.3l0.5-0.4c0.2-0.1,0.3-0.4,0.3-0.6v-3.2
		c0-0.3-0.1-0.5-0.3-0.7l-0.5-0.4c-0.2-0.2-0.4-0.2-0.6-0.2h-1.6c-0.4,0-0.6,0.1-0.8,0.3l-0.5,0.5C253,60,252.9,60.2,252.9,60.5z"/>
	<path d="M262.8,65.8v-7.4c0-0.2,0.1-0.4,0.2-0.6c0.2-0.2,0.3-0.2,0.6-0.2c0.2,0,0.4,0.1,0.6,0.2s0.2,0.3,0.2,0.6v1l1.3-1.1
		c0.5-0.4,1-0.7,1.5-0.7h1.1c0.6,0,1.2,0.2,1.7,0.7c0.5,0.5,0.7,1,0.7,1.7v0.4c0,0.2-0.1,0.4-0.2,0.6c-0.2,0.2-0.3,0.2-0.6,0.2
		c-0.2,0-0.4-0.1-0.6-0.2c-0.2-0.2-0.2-0.3-0.2-0.6v-0.4c0-0.2-0.1-0.4-0.2-0.6s-0.3-0.2-0.6-0.2h-1c-0.2,0-0.5,0.1-0.7,0.3
		l-2.2,1.9v4.4c0,0.2-0.1,0.4-0.2,0.6s-0.3,0.2-0.5,0.2c-0.2,0-0.4-0.1-0.6-0.2C262.9,66.2,262.8,66,262.8,65.8z"/>
	<path d="M279.8,66.5h-1.6c-0.6,0-1.2-0.2-1.7-0.7s-0.7-1-0.7-1.7v-5.1h-0.8c-0.2,0-0.4-0.1-0.6-0.2s-0.2-0.3-0.2-0.6
		c0-0.2,0.1-0.4,0.2-0.6s0.3-0.2,0.6-0.2h0.8v-1.9c0-0.2,0.1-0.4,0.2-0.6s0.3-0.2,0.6-0.2c0.2,0,0.4,0.1,0.5,0.2
		c0.2,0.2,0.2,0.3,0.2,0.5v1.9h3.1c0.2,0,0.4,0.1,0.5,0.2c0.2,0.2,0.2,0.3,0.2,0.5c0,0.2-0.1,0.4-0.2,0.6c-0.2,0.2-0.3,0.2-0.5,0.2
		h-3.2v5.1c0,0.2,0.1,0.4,0.2,0.5c0.2,0.2,0.3,0.2,0.6,0.2h1.5c0.4,0,0.7-0.2,0.8-0.7c0.1-0.4,0.4-0.7,0.8-0.7
		c0.2,0,0.4,0.1,0.6,0.2s0.2,0.3,0.2,0.6c0,0.5-0.2,0.9-0.7,1.4C281,66.3,280.5,66.5,279.8,66.5z"/>
	<path d="M288.9,61.6h1.6c0.2,0,0.4,0.1,0.5,0.2c0.2,0.2,0.2,0.3,0.2,0.6v1.3c0,0.2-0.1,0.4-0.2,0.6c-0.2,0.2-0.3,0.2-0.6,0.2h-1.6
		c-0.2,0-0.4-0.1-0.6-0.2c-0.2-0.2-0.2-0.3-0.2-0.5v-1.3c0-0.2,0.1-0.4,0.2-0.6C288.5,61.7,288.7,61.6,288.9,61.6z"/>
</g>
</svg>
